<?xml version="1.0" encoding="UTF-8" standalone="no"?>
<svg
   xmlns:dc="http://purl.org/dc/elements/1.1/"
   xmlns:cc="http://creativecommons.org/ns#"
   xmlns:rdf="http://www.w3.org/1999/02/22-rdf-syntax-ns#"
   xmlns:svg="http://www.w3.org/2000/svg"
   xmlns="http://www.w3.org/2000/svg"
   xmlns:xlink="http://www.w3.org/1999/xlink"
   xmlns:sodipodi="http://sodipodi.sourceforge.net/DTD/sodipodi-0.dtd"
   xmlns:inkscape="http://www.inkscape.org/namespaces/inkscape"
   width="210mm"
   height="297mm"
   viewBox="0 0 210 297"
   version="1.1"
   id="svg4138"
   inkscape:version="1.0 (4035a4fb49, 2020-05-01)"
   sodipodi:docname="18_Natan.svg">
  <defs
     id="defs4132">
    <rect
       id="rect887"
       height="28.33057"
       width="112.2532"
       y="319.11981"
       x="127.75483" />
    <inkscape:perspective
       id="perspective867"
       inkscape:persp3d-origin="105 : 99 : 1"
       inkscape:vp_z="210 : 148.5 : 1"
       inkscape:vp_y="0 : 1000 : 0"
       inkscape:vp_x="0 : 148.5 : 1"
       sodipodi:type="inkscape:persp3d" />
    <filter
       height="1.1373177"
       y="-0.068658784"
       width="1.1196901"
       x="-0.059845075"
       id="filter4092"
       style="color-interpolation-filters:sRGB"
       inkscape:collect="always">
      <feGaussianBlur
         id="feGaussianBlur4094"
         stdDeviation="1.7014806"
         inkscape:collect="always" />
    </filter>
    <radialGradient
       gradientTransform="translate(-307.32329,263.04742)"
       gradientUnits="userSpaceOnUse"
       r="38.31216"
       fy="679.72565"
       fx="-434.06027"
       cy="679.72565"
       cx="-434.06027"
       id="radialGradient3751"
       xlink:href="#linearGradient3749"
       inkscape:collect="always" />
    <linearGradient
       id="linearGradient3749"
       inkscape:collect="always">
      <stop
         id="stop3745"
         offset="0"
         style="stop-color:#ff8080;stop-opacity:1;" />
      <stop
         id="stop3747"
         offset="1"
         style="stop-color:#ff8080;stop-opacity:0;" />
    </linearGradient>
    <filter
       height="2.2098401"
       y="-0.60492003"
       width="2.2098401"
       x="-0.60492003"
       id="filter3753"
       style="color-interpolation-filters:sRGB"
       inkscape:collect="always">
      <feGaussianBlur
         id="feGaussianBlur3755"
         stdDeviation="14.87582"
         inkscape:collect="always" />
    </filter>
    <radialGradient
       inkscape:collect="always"
       xlink:href="#linearGradient3749"
       id="radialGradient3751-2"
       cx="-434.06027"
       cy="679.72565"
       fx="-434.06027"
       fy="679.72565"
       r="38.31216"
       gradientUnits="userSpaceOnUse"
       gradientTransform="translate(-343.94643,427.8307)" />
    <filter
       inkscape:collect="always"
       style="color-interpolation-filters:sRGB"
       id="filter3753-3"
       x="-0.60492003"
       width="2.2098401"
       y="-0.60492003"
       height="2.2098401">
      <feGaussianBlur
         inkscape:collect="always"
         stdDeviation="14.87582"
         id="feGaussianBlur3755-8" />
    </filter>
  </defs>
  <sodipodi:namedview
     id="base"
     pagecolor="#ffffff"
     bordercolor="#666666"
     borderopacity="1.0"
     inkscape:pageopacity="0.0"
     inkscape:pageshadow="2"
     inkscape:zoom="0.175"
     inkscape:cx="-18.6173"
     inkscape:cy="708.8445"
     inkscape:document-units="mm"
     inkscape:current-layer="layer1"
     inkscape:document-rotation="0"
     showgrid="false"
     inkscape:window-width="1350"
     inkscape:window-height="728"
     inkscape:window-x="0"
     inkscape:window-y="0"
     inkscape:window-maximized="0" />
  <metadata
     id="metadata4135">
    <rdf:RDF>
      <cc:Work
         rdf:about="">
        <dc:format>image/svg+xml</dc:format>
        <dc:type
           rdf:resource="http://purl.org/dc/dcmitype/StillImage" />
        <dc:title />
      </cc:Work>
    </rdf:RDF>
  </metadata>
  <g
     inkscape:label="Layer 1"
     inkscape:groupmode="layer"
     id="layer1">
    <circle
       r="36.217129"
       cy="-28.629236"
       cx="356.60925"
       id="path1007"
       style="fill:#00ff00;stroke:none;stroke-width:4.65799;stroke-miterlimit:4;stroke-dasharray:none" />
    <text
       id="text1061"
       y="126.55465"
       x="309.79077"
       style="font-style:normal;font-weight:normal;font-size:10.5833px;line-height:1.25;font-family:sans-serif;fill:#000000;fill-opacity:1;stroke:none;stroke-width:0.264583"
       xml:space="preserve"><tspan
         y="126.55465"
         x="309.79077"
         id="tspan1059"
         sodipodi:role="line"
         style="stroke-width:0.264583">BlueBird</tspan></text>
    <circle
       transform="matrix(0.47385983,0,0,0.23597447,452.60704,-115.56258)"
       r="29.509661"
       cy="736.59882"
       cx="-326.75241"
       id="path3729"
       style="opacity:0.72;mix-blend-mode:darken;fill:#ff8080;stroke:url(#radialGradient3751);stroke-width:17.605;stroke-miterlimit:4;stroke-dasharray:none;stroke-opacity:1;filter:url(#filter3753)" />
    <circle
       style="opacity:0.72;mix-blend-mode:darken;fill:#ff8080;stroke:url(#radialGradient3751-2);stroke-width:17.605;stroke-miterlimit:4;stroke-dasharray:none;stroke-opacity:1;filter:url(#filter3753-3)"
       id="path3729-4"
       cx="-326.75241"
       cy="736.59882"
       r="29.509661"
       transform="matrix(0.53124703,0,0,0.28126444,516.47979,-152.49085)" />
    <g
       id="g939">
      <rect
         style="fill:#999999;fill-opacity:0;stroke:#0066ff;stroke-width:0;stroke-miterlimit:4.3;stroke-opacity:0.994898;paint-order:markers stroke fill"
         id="rect912"
         width="145.14287"
         height="122.46428"
         x="41.501785"
         y="159.27917"
         rx="0.58181453"
         ry="9.6532431" />
      <rect
         style="fill:#000080;stroke:#0066ff;stroke-width:0;stroke-miterlimit:4.3;stroke-opacity:0.994898;paint-order:markers stroke fill"
         id="rect865"
         width="132.03114"
         height="34.210499"
         x="48.108513"
         y="201.52122"
         ry="9.6532431"
         rx="9.6532431" />
      <rect
         style="fill:#00ffff;stroke:#0066ff;stroke-width:0;stroke-miterlimit:4.3;stroke-opacity:0.994898;paint-order:markers stroke fill"
         id="rect883"
         width="43.19067"
         height="27.761984"
         x="53.400185"
         y="204.16702"
         rx="9.6532431"
         ry="9.6532431" />
      <text
         xml:space="preserve"
         id="text885"
         style="font-style:normal;font-weight:normal;font-size:10.5833px;line-height:1.25;font-family:sans-serif;white-space:pre;shape-inside:url(#rect887);fill:#00ffff;fill-opacity:1;stroke:none;"
         transform="matrix(1.8051441,0,0,1.8051441,-131.94127,-367.53956)"><tspan
           x="127.75391"
           y="328.48288"><tspan
             style="fill:#00ffff">BlueBird</tspan></tspan></text>
      <g
         id="g910"
         transform="matrix(-0.64042235,0,0,0.64042235,139.88854,134.3709)">
        <path
           d="m 102.00127,141.53385 c -0.83393,0.0638 -1.59873,-0.24361 -2.345693,-0.57621 -0.820121,-0.34546 -1.622285,-0.70562 -2.37762,-1.17817 -0.80097,-0.51972 -1.455742,-1.18776 -2.034365,-1.93908 -0.49852,-0.66857 -1.146651,-1.20736 -1.61929,-1.8931 -0.573886,-0.98902 -1.027686,-2.01328 -1.313807,-3.1199 -0.249292,-1.05974 -0.303677,-2.14797 -0.451561,-3.22327 -0.159848,-0.86365 -0.136422,-1.72372 -0.06046,-2.59244 0.0049,-0.35945 0.09186,-0.70679 0.172146,-1.05438 0,0 -0.264303,0.1037 -0.264303,0.1037 v 0 c -0.07933,0.35005 -0.162666,0.70035 -0.16918,1.06164 -0.07542,0.87256 -0.09334,1.73685 0.06567,2.604 0.147865,1.07739 0.202182,2.16794 0.45451,3.22924 0.289525,1.11236 0.746,2.14282 1.323389,3.13726 0.472723,0.68724 1.120217,1.22729 1.620848,1.89567 0.582264,0.75686 1.240065,1.43074 2.045489,1.95586 0.756385,0.47582 1.559025,0.83971 2.382319,1.18454 0.750108,0.33734 1.521638,0.65645 2.360908,0.59462 0,0 0.21099,-0.18998 0.21099,-0.18998 z"
           id="path3892"
           style="opacity:0.72;fill:#0000ff;stroke:#0000ff;stroke-width:4.65799;stroke-miterlimit:4;stroke-dasharray:none;stroke-opacity:1" />
        <path
           d="m 106.74064,141.44168 c 0.25532,-1.07822 0.47016,-2.16618 0.70073,-3.25052 0.33378,-1.8865 0.56304,-3.79166 0.77324,-5.69567 0.13894,-1.36672 0.17413,-2.7405 0.19192,-4.11317 0.17528,-1.21665 0.40692,-2.40983 0.43519,-3.64145 -0.0637,-1.29361 -0.1839,-2.58588 -0.43139,-3.85765 -0.17931,-0.82881 -0.75637,-1.36881 -1.39183,-1.87927 -0.84063,-0.63874 -1.62478,-1.35394 -2.49647,-1.95064 -0.51088,-0.42162 -1.12749,-0.57415 -1.74023,-0.7671 -0.44654,-0.27612 -0.93623,-0.42285 -1.44916,-0.51106 -0.63006,-0.0814 -1.26743,-0.0787 -1.901657,-0.0822 -0.59658,-0.0146 -1.184812,-0.01 -1.774645,0.0805 -0.670123,0.1013 -1.31916,0.29503 -1.990619,0.39214 -0.633537,0.0829 -1.267727,0.19787 -1.892133,0.3361 -0.818431,0.4358 -1.543542,0.99824 -2.194491,1.65225 -0.444217,0.51375 -0.682503,1.15766 -1.091851,1.69805 -0.425905,0.64516 -0.629486,1.37956 -0.732793,2.13658 -0.04171,0.39577 -0.05151,0.79364 -0.06264,1.19108 0,0 0.26003,-0.11399 0.26003,-0.11399 v 0 c 0.01159,-0.39557 0.02167,-0.7916 0.06508,-1.18535 0.106649,-0.74918 0.312907,-1.47541 0.742331,-2.10968 0.399688,-0.54353 0.64193,-1.18561 1.094066,-1.69025 0.524776,-0.52508 1.098242,-0.96905 1.717957,-1.37949 0.621633,-0.1445 1.257663,-0.25193 1.888855,-0.33948 0.672793,-0.0925 1.321549,-0.28574 1.991114,-0.39163 0.588137,-0.0914 1.17275,-0.10632 1.768552,-0.0871 0.632145,0.003 1.267114,-2.6e-4 1.895664,0.0753 0.51138,0.0833 1.00329,0.22136 1.444,0.50475 0.60586,0.19669 1.22462,0.33034 1.7304,0.75396 0.8725,0.59311 1.65373,1.31018 2.49399,1.94707 0.62712,0.50031 1.19773,1.02767 1.37172,1.84476 0.2457,1.26808 0.36512,2.55679 0.42622,3.84653 -0.0315,1.23141 -0.26829,2.42433 -0.43494,3.64202 -0.0182,1.37102 -0.0541,2.74315 -0.1941,4.10811 -0.21111,1.90228 -0.43884,3.80604 -0.77536,5.69047 -0.22988,1.08396 -0.44555,2.17086 -0.70147,3.24862 0,0 0.26471,-0.10263 0.26471,-0.10263 z"
           id="path3894"
           style="opacity:0.72;fill:#0000ff;stroke:#0000ff;stroke-width:4.65799;stroke-miterlimit:4;stroke-dasharray:none;stroke-opacity:1" />
        <path
           id="path3896"
           d="m 99.973135,138.38794 c -1.59391,-0.76492 -3.770852,-2.94842 -4.641971,-4.65596 -0.317812,-0.62296 -0.723929,-2.23046 -0.902486,-3.57222 -0.29401,-2.20935 -0.26524,-2.69664 0.30489,-5.16388 0.346244,-1.49838 0.566946,-2.78692 0.490447,-2.86341 -0.0765,-0.0765 -0.732104,0.11511 -1.456907,0.42579 l -1.317818,0.56489 v -0.59008 c 0,-0.32454 0.279054,-1.08658 0.62012,-1.69342 0.586134,-1.04288 1.047533,-1.28048 2.219069,-1.14273 0.234233,0.0275 2.257499,0.11344 4.496149,0.19088 3.818192,0.13207 4.129192,0.18573 5.021632,0.86642 0.79462,0.60609 0.98159,0.96791 1.13486,2.19619 0.26487,2.12253 -0.93623,15.27207 -1.44109,15.77693 -0.0697,0.0697 -0.79742,0.1752 -1.61706,0.23434 -1.14564,0.0827 -1.81851,-0.05 -2.909835,-0.57374 z"
           style="opacity:0.72;fill:#0000ff;stroke:#0000ff;stroke-width:4.9984;stroke-miterlimit:4;stroke-dasharray:none;stroke-opacity:1" />
        <path
           id="path3902"
           d="m 105.04674,137.69416 c 0.65292,-3.87665 1.39731,-13.20097 1.18001,-14.78092 -0.17823,-1.29592 -0.35684,-1.59427 -1.55495,-2.59737 -1.74256,-1.45896 -3.69232,-2.28567 -5.36102,-2.27311 -2.091788,0.0157 -4.839882,0.7107 -5.587423,1.41297 -0.838515,0.78775 -1.557985,2.2682 -1.557985,3.20587 0,0.54121 -0.212654,0.78423 -0.894123,1.02179 -0.491767,0.17143 -0.93894,0.31169 -0.993714,0.31169 -0.05478,0 -0.09959,-0.57918 -0.09959,-1.28707 0,-1.62684 1.085043,-3.8305 2.318538,-4.70882 0.863462,-0.61484 1.137907,-0.64718 4.905441,-0.57796 6.584666,0.12098 7.987146,0.46177 9.705196,2.35829 1.10084,1.21521 1.33807,2.59691 1.13549,6.61358 -0.19168,3.80049 -0.91455,10.98092 -1.19488,11.86889 -0.11077,0.3509 -0.45406,0.49686 -1.16858,0.49686 -1.01171,0 -1.01173,-2e-5 -0.83241,-1.06469 z"
           style="opacity:0.72;fill:#0000ff;stroke:#0000ff;stroke-width:4.9984;stroke-miterlimit:4;stroke-dasharray:none;stroke-opacity:1" />
        <path
           id="path3904"
           d="m 99.111245,140.50297 c -1.865183,-0.88239 -4.175178,-2.95182 -5.320922,-4.7668 -1.08336,-1.71615 -1.649393,-3.90585 -1.783304,-6.8987 l -0.119978,-2.68146 0.843369,-0.35461 c 0.463854,-0.19504 1.100939,-0.77707 1.415741,-1.2934 0.689501,-1.13092 0.695327,-1.0692 0.129413,1.37098 -0.371084,1.60007 -0.391809,2.31945 -0.124664,4.32692 0.401897,3.02007 0.77362,3.90624 2.473462,5.89659 1.393542,1.6317 4.063278,3.2235 5.407188,3.22397 0.35135,1.3e-4 0.63881,0.12282 0.63881,0.27266 0,0.14983 0.35005,0.59701 0.77788,0.99371 l 0.77787,0.72129 -1.70061,-2.3e-4 c -1.28072,-1.6e-4 -2.12371,-0.20038 -3.414255,-0.81092 z"
           style="opacity:0.72;fill:#0000ff;stroke:#0000ff;stroke-width:4.9984;stroke-miterlimit:4;stroke-dasharray:none;stroke-opacity:1" />
        <path
           id="path3906"
           d="m 99.74543,140.90416 c -1.522188,-0.54295 -3.155752,-1.73581 -4.644086,-3.3912 -2.15411,-2.39589 -2.881193,-4.41186 -3.185802,-8.83322 l -0.176046,-2.55527 1.027353,-0.46626 c 0.625969,-0.28409 1.179499,-0.80998 1.41678,-1.34604 0.323067,-0.72985 0.422793,-0.79555 0.585224,-0.3855 0.190333,0.4805 0.244321,0.22731 0.363307,-1.70377 0.04547,-0.73794 0.387691,-0.72078 1.199057,0.0601 0.689333,0.66345 0.71555,0.79356 0.486344,2.4133 -0.349223,2.46786 -0.273484,6.3639 0.148056,7.61605 0.453234,1.34629 2.65838,3.5835 4.231243,4.29276 1.04587,0.47162 1.18958,0.64889 1.18958,1.46728 0,0.65053 -0.14962,0.96778 -0.49685,1.05347 -0.27327,0.0674 -0.20939,0.0941 0.14196,0.0591 0.36487,-0.0363 0.63881,0.0934 0.63881,0.3024 0,0.20124 0.31941,0.61714 0.7098,0.92422 0.39039,0.30708 0.7098,0.63576 0.7098,0.73041 0,0.32554 -3.26636,0.14669 -4.34453,-0.23789 z m 0.62992,-2.25116 c -0.28986,-0.25936 -1.963767,-1.03012 -1.963767,-0.90422 0,0.17648 1.472002,0.98342 1.821817,0.9987 0.14314,0.006 0.20702,-0.0363 0.14195,-0.0945 z m -2.247686,-1.13702 c 0,-0.059 -0.223586,-0.28254 -0.496856,-0.49686 -0.450313,-0.35316 -0.460354,-0.34311 -0.107196,0.1072 0.370904,0.47294 0.604052,0.62334 0.604052,0.38966 z m -0.851755,-1.11732 c 0,-0.0489 -0.415231,-0.46409 -0.922737,-0.92274 l -0.922734,-0.83389 0.833895,0.92274 c 0.777306,0.86011 1.011576,1.05324 1.011576,0.83389 z m -2.926352,-6.36491 c -0.07199,-0.27624 -0.135618,-0.11897 -0.141404,0.3495 -0.0058,0.46847 0.05311,0.69448 0.130884,0.50226 0.07777,-0.19222 0.08251,-0.57551 0.01053,-0.85176 z m -0.292637,-2.13479 c -0.07876,-0.19519 -0.143206,-0.0355 -0.143206,0.3549 0,0.39039 0.06444,0.55009 0.143206,0.3549 0.07876,-0.1952 0.07876,-0.51461 0,-0.7098 z m 0.573751,-3.10536 c -0.09063,-0.22649 -0.157911,-0.15921 -0.171534,0.17153 -0.01233,0.2993 0.05478,0.46699 0.149119,0.37265 0.09434,-0.0943 0.104431,-0.33923 0.02241,-0.54418 z"
           style="opacity:0.72;fill:#0000ff;stroke:#0000ff;stroke-width:4.9984;stroke-miterlimit:4;stroke-dasharray:none;stroke-opacity:1" />
        <path
           id="path3908"
           d="m 99.056751,128.25386 c 0,-0.7027 0.05537,-0.99017 0.123042,-0.63882 0.06767,0.35135 0.06767,0.92629 0,1.27764 -0.06767,0.35135 -0.123042,0.0639 -0.123042,-0.63882 z"
           style="opacity:0.72;fill:#0000ff;stroke:#0000ff;stroke-width:4.9984;stroke-miterlimit:4;stroke-dasharray:none;stroke-opacity:1" />
        <path
           id="path3912"
           d="m 104.44005,136.09348 c -0.18151,-0.39836 -0.55891,-0.86725 -0.83868,-1.04197 -0.47531,-0.29683 -0.48638,-0.55346 -0.16889,-3.91256 0.18688,-1.97719 0.34738,-4.71202 0.35667,-6.0774 l 0.0169,-2.4825 -1.17943,-0.85438 c -1.25141,-0.90652 -3.159949,-1.5593 -3.819236,-1.30631 -0.218051,0.0837 -0.861306,-0.16333 -1.429456,-0.54888 -0.585568,-0.39738 -1.476999,-0.71362 -2.058077,-0.73011 -0.889167,-0.0252 -0.799217,-0.0801 0.678436,-0.41349 3.844573,-0.86752 6.086703,-0.39369 8.659523,1.83006 l 1.27763,1.10428 -0.0292,3.50976 c -0.0305,3.67294 -0.56979,10.11667 -0.92761,11.08394 -0.19626,0.53055 -0.22809,0.52107 -0.5386,-0.16044 z"
           style="opacity:0.72;fill:#0000ff;stroke:#0000ff;stroke-width:4.9984;stroke-miterlimit:4;stroke-dasharray:none;stroke-opacity:1" />
        <path
           id="path3914"
           d="m 101.71494,133.91163 c -0.60851,-0.47865 -0.74809,-0.82485 -0.74809,-1.85546 0,-0.69686 0.2042,-1.57866 0.45377,-1.95956 0.33828,-0.51628 0.41069,-1.07376 0.28452,-2.19038 -0.0931,-0.82381 -0.16345,-2.09855 -0.15636,-2.83275 0.012,-1.24688 -0.0533,-1.36887 -0.99101,-1.84994 -0.596287,-0.30592 -1.230779,-0.96003 -1.562654,-1.61098 l -0.558744,-1.09595 1.123196,0.15066 c 1.430462,0.19186 3.643132,1.47933 3.925002,2.28381 0.35013,0.99933 -0.38911,11.54899 -0.80927,11.54899 -0.11675,0 -0.54891,-0.2648 -0.96036,-0.58844 z"
           style="opacity:0.72;fill:#0000ff;stroke:#0000ff;stroke-width:4.9984;stroke-miterlimit:4;stroke-dasharray:none;stroke-opacity:1" />
        <path
           id="path3916"
           d="m 99.960422,138.51431 c -2.04837,-0.96904 -4.430321,-3.5022 -5.109488,-5.43383 -0.738462,-2.10029 -0.823505,-6.01984 -0.186343,-8.58854 0.347263,-1.39999 0.436068,-2.20037 0.244139,-2.20037 -0.193384,0 -0.180914,-0.12074 0.03474,-0.3364 0.259246,-0.25925 0.621241,-0.19413 1.578454,0.28392 0.683133,0.34117 1.59567,0.62032 2.027859,0.62032 0.773615,0 0.783651,0.0224 0.647089,1.44363 -0.0763,0.79399 -0.0429,1.28859 0.07421,1.0991 0.163208,-0.26407 0.419211,-0.24162 1.096308,0.0962 l 0.88338,0.44069 v -1.11851 c 0,-0.98706 -0.11071,-1.1713 -0.94201,-1.56772 -0.545424,-0.26009 -1.103956,-0.82593 -1.326667,-1.34402 -0.211558,-0.49214 -0.437115,-0.99063 -0.50124,-1.10774 -0.195016,-0.35618 1.593247,-0.23777 2.566097,0.16991 0.50249,0.21057 1.34373,0.74551 1.86944,1.18875 l 0.95582,0.8059 -0.19417,3.14101 c -0.25529,4.12969 -0.66015,8.14061 -0.83983,8.32029 -0.079,0.079 -0.59623,-0.12345 -1.14944,-0.44985 l -1.00584,-0.59346 v 0.68173 c 0,0.94319 0.49715,2.16441 1.1763,2.88951 0.58692,0.62664 0.6524,2.09898 0.10133,2.27879 -0.15615,0.051 -1.05622,-0.27272 -2.000141,-0.71927 z m -0.563679,-3.62798 c -0.418996,-0.61742 -0.701241,-1.43781 -0.701241,-2.03825 0,-0.78583 -0.216651,-1.20336 -0.993714,-1.91513 -0.701109,-0.64218 -0.991058,-1.14973 -0.984686,-1.72367 0.0083,-0.7511 0.03896,-0.77398 0.399412,-0.29853 0.335343,0.44233 0.545454,0.47317 1.490316,0.21874 0.604962,-0.1629 1.351357,-0.48002 1.65865,-0.70472 0.54097,-0.39557 0.53393,-0.41478 -0.22171,-0.60443 -0.429235,-0.10773 -0.78043,-0.31733 -0.78043,-0.46577 0,-0.14844 -0.125124,-0.19257 -0.27805,-0.0981 -0.152929,0.0945 -0.536774,0.0334 -0.85299,-0.13586 -0.492673,-0.26367 -0.625531,-0.19666 -0.928495,0.46827 l -0.353555,0.77597 -0.203414,-0.8363 c -0.111879,-0.45996 -0.148383,0.21105 -0.08113,1.49114 0.147936,2.81552 0.646332,4.10392 2.202346,5.69327 0.649743,0.66366 1.214779,1.20665 1.255638,1.20665 0.0409,0 -0.24127,-0.465 -0.626951,-1.03333 z m 1.570107,-2.95152 c 0,-1.0447 -0.0484,-1.11976 -0.54917,-0.85175 -0.901887,0.48267 -1.115173,0.34759 -1.217033,-0.77079 l -0.09697,-1.0647 -0.299765,0.99372 c -0.247954,0.82198 -0.22189,1.03971 0.15081,1.25986 0.247817,0.14637 0.683432,0.5616 0.968039,0.92273 0.748719,0.95003 1.044089,0.81167 1.044089,-0.48907 z m 0.5664,-2.53993 c 0.19958,-0.74118 0.21216,-1.44984 0.0366,-2.05841 -0.24753,-0.85778 -0.26976,-0.87194 -0.29342,-0.18693 -0.0141,0.40763 -0.10686,1.33391 -0.20616,2.05841 -0.22129,1.61446 0.0492,1.72367 0.46303,0.18693 z m -3.481913,-4.03263 0.633468,-0.41943 -0.846407,-0.81091 -0.846408,-0.8109 v 0.72742 c 0,0.40008 -0.07943,1.15863 -0.176511,1.68565 -0.153673,0.83423 -0.126116,0.89931 0.212939,0.50291 0.214196,-0.25043 0.67451,-0.64406 1.022919,-0.87474 z"
           style="opacity:0.72;fill:#0000ff;stroke:#0000ff;stroke-width:4.9984;stroke-miterlimit:4;stroke-dasharray:none;stroke-opacity:1" />
        <path
           id="path3918"
           d="m 103.73251,142.32896 c 0.1266,-0.66224 0.0733,-0.68756 -1.38798,-0.65975 -3.104605,0.0591 -7.591825,-3.16617 -9.324036,-6.70177 -0.907713,-1.85274 -1.570518,-5.50776 -1.373473,-7.57399 0.05911,-0.61986 0.07817,-1.12702 0.04236,-1.12702 -0.03582,0 -0.38676,0.14655 -0.779872,0.32566 -0.980824,0.44689 -1.6421,-0.11406 -1.526839,-1.29519 0.06979,-0.71515 0.301093,-0.97621 1.260073,-1.42216 1.341556,-0.62385 2.087765,-1.68516 1.91163,-2.71885 -0.455374,-2.67245 -0.450681,-2.7775 0.151024,-3.37921 0.542036,-0.54203 0.90873,-0.59427 4.073657,-0.58034 5.547236,0.0244 7.725816,0.33747 9.107776,1.30874 0.64673,0.45454 1.47991,1.26887 1.8515,1.80961 0.66626,0.96954 0.6733,1.052 0.50799,5.95174 -0.21236,6.29416 -0.6401,10.07412 -1.29203,11.41761 -0.28145,0.58002 -0.39116,1.09477 -0.24379,1.14389 0.15285,0.051 0.18199,0.54738 0.0679,1.15581 -0.14052,0.74904 -0.42273,1.18164 -0.94805,1.45329 -0.41138,0.21274 -0.99106,0.6554 -1.28816,0.9837 -0.7098,0.78432 -0.97144,0.75466 -0.80963,-0.0918 z m 1.48878,-6.49703 c 0.002,-0.12633 -0.12342,-0.15073 -0.27958,-0.0542 -0.15615,0.0965 -0.28196,0.39152 -0.27957,0.65557 0.004,0.41375 0.0424,0.42124 0.27957,0.0542 0.15138,-0.23423 0.27718,-0.52924 0.27958,-0.65557 z m -6.398317,-1.74862 c -0.226264,-0.54153 -0.41846,-1.34005 -0.427098,-1.77449 -0.0104,-0.52298 -0.29709,-1.01212 -0.848426,-1.44755 l -0.832715,-0.65765 0.178617,0.94157 c 0.214635,1.13142 0.527764,1.77738 1.454232,2.99998 0.890088,1.1746 0.986758,1.16202 0.47539,-0.0619 z m 1.968277,-2.94229 c -0.0328,-0.0517 -0.32799,0.0496 -0.65591,0.22511 -0.57619,0.30837 -0.579394,0.34163 -0.0953,0.98957 l 0.50093,0.67048 0.15498,-0.89558 c 0.0852,-0.49258 0.12812,-0.93789 0.0953,-0.98958 z m -1.119819,-2.59578 0.833969,-0.31777 -0.710932,-0.36884 c -1.401604,-0.72716 -2.188864,-0.78865 -2.506181,-0.19573 -0.161843,0.3024 -0.21245,0.76302 -0.112461,1.02359 0.193783,0.50498 0.905306,0.46472 2.495605,-0.14125 z m -1.318617,-3.41449 c 0.177318,0 0.03949,-0.28746 -0.306274,-0.63881 -0.616669,-0.62663 -0.632195,-0.62798 -0.81331,-0.071 -0.10155,0.31231 -0.197374,0.81122 -0.21294,1.1087 -0.02648,0.50613 0.0051,0.51068 0.490913,0.071 0.285568,-0.25844 0.664292,-0.46989 0.841611,-0.46989 z m 2.897956,-0.23834 c 0,-0.89263 -0.131,-1.14979 -0.72316,-1.41959 -0.988592,-0.45044 -0.980351,-0.45602 -0.980351,0.66422 0,0.65477 0.133406,0.99371 0.391113,0.99371 0.215118,0 0.550168,0.19165 0.744558,0.42588 0.51041,0.61501 0.56784,0.54783 0.56784,-0.66422 z"
           style="opacity:0.72;fill:#0000ff;stroke:#0000ff;stroke-width:4.9984;stroke-miterlimit:4;stroke-dasharray:none;stroke-opacity:1" />
        <path
           id="path3920"
           d="m 100.88748,124.75263 c -0.31636,-0.80436 -0.26478,-1.21527 0.106,-0.84449 0.1708,0.1708 0.26284,0.5477 0.20455,0.83756 -0.10223,0.5083 -0.11326,0.50855 -0.31055,0.007 z"
           style="opacity:0.72;fill:#0000ff;stroke:#0000ff;stroke-width:4.9984;stroke-miterlimit:4;stroke-dasharray:none;stroke-opacity:1" />
        <path
           id="path3922"
           d="m 100.75978,143.57735 c -3.455036,-0.49415 -7.550747,-3.69339 -9.543762,-7.45483 -0.843891,-1.59269 -1.435756,-4.2896 -1.851475,-8.4365 -0.253249,-2.52621 -0.235651,-3.02925 0.115313,-3.29636 0.250076,-0.19033 0.416637,-0.80902 0.420402,-1.56155 0.0085,-1.70878 0.899628,-3.52789 2.441572,-4.9844 1.615773,-1.52624 2.874063,-1.89839 6.498243,-1.92189 2.641527,-0.0171 2.971667,0.0455 4.684657,0.88896 1.01357,0.49906 2.5775,1.56333 3.47539,2.36504 l 1.63254,1.45765 -0.003,2.03571 c -0.005,3.98303 -0.80428,13.30786 -1.32355,15.45086 -0.13306,0.54913 -0.0409,0.63925 0.65676,0.64196 l 0.81156,0.003 -0.93346,0.73562 c -0.71444,0.56301 -0.86063,0.82336 -0.62307,1.1096 0.22955,0.2766 0.20539,0.43542 -0.0928,0.60985 -0.22174,0.12972 -0.61444,0.64924 -0.87267,1.15448 -0.25992,0.50855 -0.75237,0.97585 -1.10316,1.04682 -1.48608,0.30064 -3.00112,0.35443 -4.3897,0.15583 z"
           style="opacity:0.72;fill:#0000ff;stroke:#0000ff;stroke-width:4.9984;stroke-miterlimit:4;stroke-dasharray:none;stroke-opacity:1" />
        <path
           id="path3924"
           d="m 99.917912,143.44721 c -2.0642,-0.47751 -4.397079,-1.96652 -6.362579,-4.06105 -2.722226,-2.90093 -3.69912,-5.43375 -4.113008,-10.66389 -0.168238,-2.12598 -0.304332,-2.61822 -0.88419,-3.19808 -1.040037,-1.04004 -0.827156,-2.57516 0.478748,-3.45234 0.985885,-0.66222 0.988108,-0.66864 0.898959,-2.59842 -0.08361,-1.80983 -0.0338,-1.99785 0.772528,-2.91621 0.482007,-0.54898 1.351706,-1.1284 1.973166,-1.31459 2.31498,-0.69359 11.069724,-0.19268 13.214534,0.75607 1.60604,0.71042 3.19832,2.14541 3.95997,3.56876 0.57375,1.07222 0.62119,1.54865 0.61046,6.13113 -0.0186,7.93735 -0.84286,13.50397 -2.16443,14.61696 -0.75361,0.63467 -0.75435,0.63921 -0.19501,1.19855 0.55934,0.55933 0.55762,0.56483 -0.45384,1.45291 -0.98985,0.8691 -1.08107,0.89057 -3.6379,0.85641 -1.44242,-0.0193 -3.28626,-0.18856 -4.097408,-0.37621 z"
           style="opacity:0.72;fill:#0000ff;stroke:#0000ff;stroke-width:4.9984;stroke-miterlimit:4;stroke-dasharray:none;stroke-opacity:1" />
        <path
           id="path3926"
           d="m 103.40246,144.59144 c 0.1581,-0.62994 0.0883,-0.65974 -1.79321,-0.76606 -2.837103,-0.16031 -5.315257,-1.43736 -7.882324,-4.06193 -3.068568,-3.1373 -4.013776,-5.47932 -4.358658,-10.79979 -0.193484,-2.98486 -0.252396,-3.08036 -1.568542,-2.54266 -0.497359,0.20319 -0.521989,0.0968 -0.370809,-1.601 0.366366,-4.11458 1.047785,-6.08386 2.792913,-8.07146 1.164892,-1.32673 2.003237,-1.72553 4.072932,-1.93749 2.209321,-0.22625 9.313128,0.21279 10.832748,0.66951 1.66284,0.49976 3.76271,2.17719 4.7738,3.81345 l 0.86074,1.39292 -0.0429,4.13836 c -0.0532,5.13289 -0.49869,9.96618 -1.26652,13.7409 -0.60039,2.95152 -0.75455,3.79035 -0.79633,4.33283 -0.013,0.16899 -0.43889,0.44382 -0.94639,0.61072 -0.5075,0.16691 -1.72131,0.62605 -2.69735,1.02031 l -1.77462,0.71683 z"
           style="opacity:0.72;fill:#0000ff;stroke:#0000ff;stroke-width:4.9984;stroke-miterlimit:4;stroke-dasharray:none;stroke-opacity:1" />
        <circle
           r="2.7335238"
           transform="rotate(-103.44401)"
           cy="65.654793"
           cx="-141.60921"
           id="path3934"
           style="opacity:0.72;fill:#ffffff;stroke:#ffffff;stroke-width:3.44974;stroke-miterlimit:4;stroke-dasharray:none;stroke-opacity:1" />
        <circle
           r="3.8329022"
           cy="122.46432"
           cx="97.063042"
           id="path3936"
           style="opacity:0.72;fill:#000000;stroke:#ffffff;stroke-width:4.65799;stroke-miterlimit:4;stroke-dasharray:none;stroke-opacity:1" />
        <path
           transform="matrix(0.12322853,0,0,0.10691042,134.91741,40.266147)"
           inkscape:transform-center-y="-3.9023933"
           inkscape:transform-center-x="-0.10284132"
           d="m -352.03114,812.42314 -68.23542,0.76491 33.45528,-59.47606 z"
           inkscape:randomized="0"
           inkscape:rounded="0"
           inkscape:flatsided="true"
           sodipodi:arg2="1.559587"
           sodipodi:arg1="0.51238946"
           sodipodi:r2="19.699102"
           sodipodi:r1="39.398209"
           sodipodi:cy="793.10773"
           sodipodi:cx="-386.36966"
           sodipodi:sides="3"
           id="path3938"
           style="opacity:0.97;fill:#ffff00;stroke:#ffff00;stroke-width:17.605;stroke-miterlimit:4;stroke-dasharray:none;stroke-opacity:1;filter:url(#filter4092)"
           sodipodi:type="star" />
        <rect
           ry="0"
           y="139.42973"
           x="106.74064"
           height="2.0119357"
           width="11.143873"
           id="rect4096"
           style="opacity:0.97;fill:#0000ff;stroke:#0000ff;stroke-width:4.65799;stroke-miterlimit:4;stroke-dasharray:none;stroke-opacity:1" />
      </g>
    </g>
  </g>
</svg>
